<mxfile host="app.diagrams.net" modified="2023-03-20T02:45:51.109Z" agent="5.0 (Windows NT 10.0; Win64; x64) AppleWebKit/537.36 (KHTML, like Gecko) Chrome/111.0.0.0 Safari/537.36" etag="DNuceqzBeEsuN8ZEPDjf" version="21.0.8" type="github">
  <diagram name="Page-1" id="2zioo83s16DX7Tl0C2Zv">
    <mxGraphModel dx="1434" dy="884" grid="1" gridSize="10" guides="1" tooltips="1" connect="1" arrows="1" fold="1" page="1" pageScale="1" pageWidth="4681" pageHeight="3300" math="0" shadow="0">
      <root>
        <mxCell id="0" />
        <mxCell id="1" parent="0" />
        <mxCell id="9a8qMosVaYQrsiDTp7nS-1" value="file&lt;br&gt;" style="swimlane;whiteSpace=wrap;html=1;rounded=1;arcSize=21;" vertex="1" parent="1">
          <mxGeometry x="170" y="190" width="200" height="470" as="geometry" />
        </mxCell>
      </root>
    </mxGraphModel>
  </diagram>
</mxfile>
